<svg xmlns="http://www.w3.org/2000/svg" width="130.1" height="130.1" viewBox="0 0 130.1 130.1"><defs><style>.a{fill:#fff;}</style></defs><title>oomd_Light</title><path class="a" d="M200.45,340.16h9.35l7.09-7.09a1.9,1.9,0,0,1,1.35-.56H230a1.9,1.9,0,0,1,1.35.56l6.3,6.3V333.3l-4.62-4.62H215.21l-2.79,2.79a1.85,1.85,0,0,1-.58.39,1.91,1.91,0,0,1-1.42.65h-10Z" transform="translate(-200.45 -276.32)"/><path class="a" d="M252.68,313.55h3.9a1.58,1.58,0,0,1,0-.38v-19a1.92,1.92,0,0,1,3.83,0v19a2.33,2.33,0,0,1,0,.38H263l8.34-8.34V295l-6.61-6.61a1.85,1.85,0,0,1-.39-.58,1.93,1.93,0,0,1-.65-1.43V276.32H251.79L245.06,283v10.2l6.61,6.62a1.81,1.81,0,0,1,.39.57,1.89,1.89,0,0,1,.65,1.43v11.31A2.34,2.34,0,0,1,252.68,313.55Z" transform="translate(-200.45 -276.32)"/><path class="a" d="M237.68,355.05v-4a1.85,1.85,0,0,1-.48.07h-19a1.92,1.92,0,0,1,0-3.83h19a1.85,1.85,0,0,1,.48.07v-2.62l-8.44-8.45H219L212.42,343a2,2,0,0,1-.58.39,1.91,1.91,0,0,1-1.42.65h-10v12l6.62,6.62h10.21l6.61-6.61a1.88,1.88,0,0,1,.58-.4,1.91,1.91,0,0,1,1.42-.65H237.2A1.85,1.85,0,0,1,237.68,355.05Z" transform="translate(-200.45 -276.32)"/><path class="a" d="M252.71,396l-3.26-3.27a1.9,1.9,0,0,1-.54-1.6,1.64,1.64,0,0,1,0-.23v-19a1.88,1.88,0,0,1,.56-1.35l1.39-1.4h-3.67l-17.42,17.41v19.83h23Z" transform="translate(-200.45 -276.32)"/><path class="a" d="M330.55,343.51H320l-7.09,7.09a1.92,1.92,0,0,1-1.35.56H299.79a1.92,1.92,0,0,1-1.36-.56l-5.11-5.12v6.07l3.43,3.43h17.86l2.78-2.78a2,2,0,0,1,.58-.39,1.89,1.89,0,0,1,1.43-.65h11.15Z" transform="translate(-200.45 -276.32)"/><path class="a" d="M275.19,369.18v18.36a1.92,1.92,0,1,1-3.83,0V369.18h-3.63l-7.36,7.37v10.2l6.61,6.61a1.85,1.85,0,0,1,.39.58,1.93,1.93,0,0,1,.65,1.43v11.05h11.31a1.91,1.91,0,0,1,.49-.86l6.85-6.85v-10.2l-6.61-6.61a1.85,1.85,0,0,1-.39-.58,1.89,1.89,0,0,1-.65-1.43V369.18Z" transform="translate(-200.45 -276.32)"/><path class="a" d="M264.19,406.42V396l-7.09-7.09a1.92,1.92,0,0,1-.56-1.36V375.75a1.92,1.92,0,0,1,.56-1.35l5.22-5.22h-6.07l-3.54,3.54v17.86l2.79,2.78a1.85,1.85,0,0,1,.39.58,1.89,1.89,0,0,1,.65,1.43v11.05Z" transform="translate(-200.45 -276.32)"/><path class="a" d="M225.93,386a1.91,1.91,0,0,1,.3-1,1.89,1.89,0,0,1,.47-.77L242,369a5.68,5.68,0,0,1-3.4-2.52h-8.21l-7.09,7.1a1.93,1.93,0,0,1-1.35.56,1.92,1.92,0,0,1-1.36-3.27l7.17-7.17a2,2,0,0,1,.58-.39,1.89,1.89,0,0,1,1.43-.65h8v-3.9a1.85,1.85,0,0,1-.48.07H226.51l-7.09,7.09a1.9,1.9,0,0,1-1.35.56H206.28a1.9,1.9,0,0,1-1.35-.56l-4.48-4.47V393a13.4,13.4,0,0,0,13.39,13.4h12.09Z" transform="translate(-200.45 -276.32)"/><path class="a" d="M267.54,276.32v9.44l7.09,7.1a1.88,1.88,0,0,1,.56,1.35V306a1.9,1.9,0,0,1-.56,1.35l-6.2,6.2h6.07L279,309V291.18l-2.79-2.79a1.85,1.85,0,0,1-.39-.58,1.89,1.89,0,0,1-.65-1.43V276.32Z" transform="translate(-200.45 -276.32)"/><path class="a" d="M320,355l-3.26,3.27a2,2,0,0,1-1.36.56l-.24,0-.24,0H296a1.9,1.9,0,0,1-1.35-.56L293.32,357v3l14,14a1.91,1.91,0,1,1-2.7,2.71l-11.59-11.58a5.76,5.76,0,0,1-2.57,3.29v7.07l7.09,7.09a1.9,1.9,0,0,1,0,2.7,1.87,1.87,0,0,1-1.35.56,1.91,1.91,0,0,1-1.36-.56l-7.17-7.17a1.85,1.85,0,0,1-.39-.58,1.89,1.89,0,0,1-.65-1.43v-6.88h-3.83v10.09l7.1,7.09a1.92,1.92,0,0,1,.56,1.36v11.79a1.92,1.92,0,0,1-.56,1.35l-5.56,5.56h32.78A13.4,13.4,0,0,0,330.55,393V355Z" transform="translate(-200.45 -276.32)"/><path class="a" d="M209.8,328.68l3.26-3.26a1.88,1.88,0,0,1,1.6-.54l.24,0h19a1.93,1.93,0,0,1,1.35.57l2.47,2.47v-6l-14.81-14.82a.48.48,0,0,1-.09-.11,1.89,1.89,0,0,1-.68-1.44v-19a1.92,1.92,0,1,1,3.83,0v18.16L238.17,317a5.81,5.81,0,0,1,3.06-3v-7.67l-7.09-7.09a1.92,1.92,0,0,1,2.71-2.71l7.17,7.17a1.85,1.85,0,0,1,.39.58,1.89,1.89,0,0,1,.65,1.43v7.86h3.87a1.58,1.58,0,0,1,0-.38V302.48l-7.1-7.09a2,2,0,0,1-.56-1.35V282.25a1.92,1.92,0,0,1,.56-1.35l4.58-4.58H213.84a13.39,13.39,0,0,0-13.39,13.39v39Z" transform="translate(-200.45 -276.32)"/><path class="a" d="M293.32,332.51h18.26a1.91,1.91,0,1,1,0,3.82H293.32v3.74l7.26,7.26h10.2l6.61-6.61a2,2,0,0,1,.58-.39,1.91,1.91,0,0,1,1.43-.65h11.15V328.4a1.94,1.94,0,0,1-.95-.52L322.75,321H312.54l-6.61,6.61a1.85,1.85,0,0,1-.58.39,1.89,1.89,0,0,1-1.43.65h-10.6Z" transform="translate(-200.45 -276.32)"/><path class="a" d="M279,285.76l3.26,3.27a1.91,1.91,0,0,1,.54,1.6,1.79,1.79,0,0,1,0,.23v19a1.92,1.92,0,0,1-.56,1.36l-2.37,2.37H284L300.54,297v-6.62a1.92,1.92,0,0,1,3.83,0v7.48a1.89,1.89,0,0,1-.89,1.61l-14.3,14.31a5.77,5.77,0,0,1,3.74,3.42h6.56l7.09-7.09a1.91,1.91,0,0,1,2.7,2.7L302.1,320a1.85,1.85,0,0,1-.58.39,1.91,1.91,0,0,1-1.42.65h-6.78v3.82h10l7.1-7.09a1.88,1.88,0,0,1,1.35-.56h11.79a1.9,1.9,0,0,1,1.35.56l5.66,5.66V289.71a13.39,13.39,0,0,0-13.39-13.39H279Z" transform="translate(-200.45 -276.32)"/></svg>