<svg xmlns="http://www.w3.org/2000/svg" width="130.1" height="130.1" viewBox="0 0 130.1 130.1"><defs><style>.a{fill:#fff}</style></defs><path class="a" d="M0 63.84h9.35l7.09-7.09a1.9 1.9 0 0 1 1.35-.56h11.76a1.9 1.9 0 0 1 1.35.56l6.3 6.3v-6.07l-4.62-4.62H14.76l-2.79 2.79a1.85 1.85 0 0 1-.58.39 1.91 1.91 0 0 1-1.42.65h-10zm52.23-26.61h3.9a1.58 1.58 0 0 1 0-.38v-19a1.92 1.92 0 0 1 3.83 0v19a2.33 2.33 0 0 1 0 .38h2.59l8.34-8.34V18.68l-6.61-6.61a1.85 1.85 0 0 1-.39-.58 1.93 1.93 0 0 1-.65-1.43V0h-11.9l-6.73 6.68v10.2l6.61 6.62a1.81 1.81 0 0 1 .39.57 1.89 1.89 0 0 1 .65 1.43v11.31a2.34 2.34 0 0 1-.03.42z"/><path class="a" d="M37.23 78.73v-4a1.85 1.85 0 0 1-.48.07h-19a1.92 1.92 0 0 1 0-3.83h19a1.85 1.85 0 0 1 .48.07v-2.62l-8.44-8.45H18.55l-6.58 6.71a2 2 0 0 1-.58.39 1.91 1.91 0 0 1-1.42.65h-10v12l6.62 6.62H16.8l6.61-6.61a1.88 1.88 0 0 1 .58-.4 1.91 1.91 0 0 1 1.42-.65h11.34a1.85 1.85 0 0 1 .48.05zm15.03 40.95L49 116.41a1.9 1.9 0 0 1-.54-1.6 1.64 1.64 0 0 1 0-.23v-19a1.88 1.88 0 0 1 .56-1.35l1.39-1.4h-3.67l-17.42 17.41v19.83h23zm77.84-52.49h-10.55l-7.09 7.09a1.92 1.92 0 0 1-1.35.56H99.34a1.92 1.92 0 0 1-1.36-.56l-5.11-5.12v6.07l3.43 3.43h17.86l2.78-2.78a2 2 0 0 1 .58-.39 1.89 1.89 0 0 1 1.43-.65h11.15zM74.74 92.86v18.36a1.92 1.92 0 1 1-3.83 0V92.86h-3.63l-7.36 7.37v10.2l6.61 6.61a1.85 1.85 0 0 1 .39.58 1.93 1.93 0 0 1 .65 1.43v11.05h11.31a1.91 1.91 0 0 1 .49-.86l6.85-6.85v-10.2l-6.61-6.61a1.85 1.85 0 0 1-.39-.58 1.89 1.89 0 0 1-.65-1.43V92.86z"/><path class="a" d="M63.74 130.1v-10.42l-7.09-7.09a1.92 1.92 0 0 1-.56-1.36v-11.8a1.92 1.92 0 0 1 .56-1.35l5.22-5.22H55.8l-3.54 3.54v17.86l2.79 2.78a1.85 1.85 0 0 1 .39.58 1.89 1.89 0 0 1 .65 1.43v11.05zm-38.26-20.42a1.91 1.91 0 0 1 .3-1 1.89 1.89 0 0 1 .47-.77l15.3-15.23a5.68 5.68 0 0 1-3.4-2.52h-8.21l-7.09 7.1a1.93 1.93 0 0 1-1.35.56 1.92 1.92 0 0 1-1.36-3.27l7.17-7.17a2 2 0 0 1 .58-.39 1.89 1.89 0 0 1 1.43-.65h8v-3.9a1.85 1.85 0 0 1-.48.07H26.06l-7.09 7.09a1.9 1.9 0 0 1-1.35.56H5.83a1.9 1.9 0 0 1-1.35-.56L0 85.13v31.55a13.4 13.4 0 0 0 13.39 13.4h12.09zM67.09 0v9.44l7.09 7.1a1.88 1.88 0 0 1 .56 1.35v11.79a1.9 1.9 0 0 1-.56 1.35l-6.2 6.2h6.07l4.5-4.55V14.86l-2.79-2.79a1.85 1.85 0 0 1-.39-.58 1.89 1.89 0 0 1-.65-1.43V0zm52.46 78.68l-3.26 3.27a2 2 0 0 1-1.36.56H95.55a1.9 1.9 0 0 1-1.35-.56l-1.33-1.27v3l14 14a1.913 1.913 0 1 1-2.7 2.71L92.58 88.81a5.76 5.76 0 0 1-2.57 3.29v7.07l7.09 7.09a1.9 1.9 0 0 1 0 2.7 1.87 1.87 0 0 1-1.35.56 1.91 1.91 0 0 1-1.36-.56l-7.17-7.17a1.85 1.85 0 0 1-.39-.58 1.89 1.89 0 0 1-.65-1.43V92.9h-3.83v10.09l7.1 7.09a1.92 1.92 0 0 1 .56 1.36v11.79a1.92 1.92 0 0 1-.56 1.35l-5.56 5.56h32.78a13.4 13.4 0 0 0 13.43-13.46v-38zM9.35 52.36l3.26-3.26a1.88 1.88 0 0 1 1.6-.54h19.24a1.93 1.93 0 0 1 1.35.57l2.47 2.47v-6L22.46 30.78a.48.48 0 0 1-.09-.11 1.89 1.89 0 0 1-.68-1.44v-19a1.92 1.92 0 1 1 3.83 0v18.16l12.2 12.29a5.81 5.81 0 0 1 3.06-3v-7.67l-7.09-7.09a1.92 1.92 0 0 1 2.71-2.71l7.17 7.17a1.85 1.85 0 0 1 .39.58 1.89 1.89 0 0 1 .65 1.43v7.86h3.87a1.58 1.58 0 0 1 0-.38V26.16l-7.1-7.09a2 2 0 0 1-.56-1.35V5.93a1.92 1.92 0 0 1 .56-1.35L45.96 0H13.39A13.39 13.39 0 0 0 0 13.39v39zm83.52 3.83h18.26a1.91 1.91 0 1 1 0 3.82H92.87v3.74l7.26 7.26h10.2l6.61-6.61a2 2 0 0 1 .58-.39 1.91 1.91 0 0 1 1.43-.65h11.15V52.08a1.94 1.94 0 0 1-.95-.52l-6.85-6.88h-10.21l-6.61 6.61a1.85 1.85 0 0 1-.58.39 1.89 1.89 0 0 1-1.43.65h-10.6z"/><path class="a" d="M78.55 9.44l3.26 3.27a1.91 1.91 0 0 1 .54 1.6 1.79 1.79 0 0 1 0 .23v19a1.92 1.92 0 0 1-.56 1.36l-2.37 2.37h4.13l16.54-16.59v-6.62a1.92 1.92 0 0 1 3.83 0v7.48a1.89 1.89 0 0 1-.89 1.61l-14.3 14.31a5.77 5.77 0 0 1 3.74 3.42h6.56l7.09-7.09a1.91 1.91 0 0 1 2.7 2.7l-7.17 7.19a1.85 1.85 0 0 1-.58.39 1.91 1.91 0 0 1-1.42.65h-6.78v3.82h10l7.1-7.09a1.88 1.88 0 0 1 1.35-.56h11.79a1.9 1.9 0 0 1 1.35.56l5.66 5.66V13.39A13.39 13.39 0 0 0 116.73 0H78.55z"/></svg>